<svg xmlns="http://www.w3.org/2000/svg" viewBox="0 0 148 111" role="img" aria-label="OSOLogic"><path fill="#a11313" d="M 66.820966,83.305833 C 46.334359,76.153231 33.252403,68.200767 29.370271,60.539741 c -1.175689,-2.32012 -1.672425,-5.489292 -1.40102,-8.938559 0.673483,-8.559274 3.991235,-19.541821 8.105433,-26.830921 l 1.712772,-3.03451 -0.686994,-0.731834 c -2.161543,-2.302598 -2.751189,-6.849782 -1.294001,-9.978968 1.479096,-3.176226 4.242371,-4.9891673 7.973403,-5.2312123 2.093852,-0.1358421 2.714936,-0.034554 4.333143,0.7062226 1.038921,0.4756426 2.489802,1.4839452 3.224184,2.240676 l 1.335242,1.3758767 2.377903,-0.660413 c 4.341837,-1.2058578 11.60107,-1.4132872 16.00734,-0.4573958 0.817887,0.1774338 1.23134,-0.047358 2.778719,-1.5108097 2.020166,-1.9105812 3.174544,-2.2886362 6.21773,-2.0362765 4.737695,0.3928863 7.734094,5.469107 5.720623,9.691383 -0.467725,0.980842 -0.502772,1.345504 -0.173862,1.809189 1.142847,1.611167 2.571371,4.830627 3.123139,7.038655 0.340037,1.360722 0.799938,2.813531 1.022001,3.228455 0.470164,0.878506 2.305203,1.883922 4.491525,2.460891 5.375596,1.418633 6.940309,4.982025 4.951739,11.276941 -2.107728,6.672116 -7.314522,11.781414 -14.495162,14.22371 -3.409916,1.159788 -4.404409,1.834242 -5.235228,3.550502 l -0.724013,1.495604 0.73128,4.339095 c 1.091859,6.478608 0.895903,9.093813 -0.965564,12.88592 -3.50503,5.7911 -5.804896,7.904967 -11.679637,5.853871 z M 87.461914,49.095696 c 1.765691,-0.863869 3.692158,-2.589886 3.692158,-3.307976 0,-0.155432 -0.731865,-0.04749 -1.626374,0.239949 -2.309655,0.742122 -8.211038,0.732817 -11.042214,-0.01734 -4.296147,-1.138396 -8.150568,-3.685812 -9.927728,-6.56133 -1.095241,-1.772126 -2.967697,-2.011831 -3.785084,-0.484532 -0.28334,0.529424 -0.157386,1.043139 0.599553,2.445181 1.350382,2.501267 3.994375,5.019487 6.840491,6.51508 3.368167,1.769913 5.753057,2.302689 9.872208,2.205412 2.958167,-0.06987 3.695426,-0.211687 5.37699,-1.034391 z m 8.03009,-11.00861 c 0.876533,-0.876525 1.159234,-1.428622 1.078536,-2.106338 l -0.109321,-0.918439 -3.252749,-0.05875 c -1.789011,-0.03222 -3.445346,0.08696 -3.680752,0.265094 -0.745061,0.563692 -0.466387,1.639624 0.736151,2.842157 0.954353,0.954364 1.423284,1.164149 2.602195,1.164149 1.184561,0 1.647472,-0.20941 2.625954,-1.187896 z M 63.769378,30.540385 c 3.040304,-1.572203 1.827888,-6.343095 -1.606896,-6.323139 -3.28854,0.01915 -4.652199,3.840002 -2.128388,5.963641 1.187055,0.998856 2.293061,1.105295 3.735284,0.359498 z m 19.401963,-2.281699 c 1.085754,-1.020027 1.064057,-2.781399 -0.04801,-3.893424 -1.13073,-1.130735 -2.401947,-1.074676 -3.637037,0.160429 -1.235091,1.235091 -1.291165,2.5063 -0.160428,3.637038 1.074752,1.074754 2.758832,1.116773 3.845444,0.09602 z m 26.858309,54.448906 c -2.50319,-0.720077 -4.49501,-3.254832 -4.49501,-5.720261 0,-1.035337 -0.26,-1.273349 -4.15607,-3.804719 l -4.156096,-2.700306 -1.231558,0.66008 c -2.165928,1.160858 -4.794237,0.771894 -6.676579,-0.988081 -4.474977,-4.18406 -0.341912,-11.585371 5.532638,-9.907557 l 1.614223,0.461031 4.492882,-2.926918 c 4.45931,-2.905051 4.49476,-2.938385 4.74055,-4.459781 0.50786,-3.143265 4.42644,-5.724611 7.35725,-4.84652 3.57668,1.071596 5.39004,4.704765 4.00398,8.022098 -0.51466,1.231727 -2.70866,3.321991 -3.48685,3.321991 -0.42051,0 -0.49994,0.900286 -0.49087,5.563912 l 0.0102,5.56391 1.5099,0.915935 c 3.50531,2.12636 3.88949,6.532859 0.82044,9.410321 -0.93908,0.880449 -3.30236,1.924844 -4.06396,1.795958 -0.0942,-0.01596 -0.69073,-0.178418 -1.32571,-0.361093 z m 3.50509,-3.739691 c 1.75323,-1.379103 0.96949,-4.394989 -1.28946,-4.961953 -1.84936,-0.464158 -3.96003,1.567226 -3.50639,3.374674 0.54071,2.154369 3.02825,2.977662 4.79585,1.587279 z m -5.65621,-6.767324 c 0.49987,-0.346002 1.17849,-0.726347 1.50805,-0.845256 0.53834,-0.19421 0.5973,-0.782237 0.5806,-5.790812 l -0.0187,-5.574664 -1.60778,-1.042649 -1.60778,-1.042647 -3.99827,2.659133 -3.998268,2.659121 0.34672,1.255745 c 0.190709,0.690656 0.256455,1.736953 0.146124,2.325091 -0.1962,1.045818 -0.115954,1.123414 3.651544,3.528629 2.11869,1.352612 3.9054,2.46786 3.97048,2.478339 0.0652,0.01031 0.52733,-0.264049 1.0272,-0.61003 z M 95.449564,67.880489 c 1.17804,-1.178035 1.11658,-2.702433 -0.160414,-3.979441 -1.241263,-1.241264 -2.385914,-1.276037 -3.766404,-0.114397 -2.087501,1.756507 -0.891617,4.934285 1.856903,4.934285 0.848872,0 1.489671,-0.260175 2.069915,-0.840424 z M 113.54302,56.309106 c 1.92933,-1.735814 0.7112,-5.050314 -1.85606,-5.050314 -1.36331,0 -3.07077,1.618272 -3.07077,2.910356 0,1.27319 1.70791,2.910355 3.03612,2.910355 0.59077,0 1.40169,-0.330421 1.89071,-0.770397 z"/></svg>
